<svg width="172" height="167" viewBox="0 0 172 167" fill="none" xmlns="http://www.w3.org/2000/svg">
<g clip-path="url(#clip0_896_1210)">
<path d="M113.424 24.7767C107.949 12.8338 106.56 -1.06941 85.564 -0.344379C64.5582 -1.07948 63.1719 12.8338 57.704 24.7767C53.9999 38.6288 53.9999 38.1288 54 55.1288C54 85.8722 81.3581 63.31 87.0006 63.1288C92.6465 63.31 119.501 83.3722 119.501 52.6288C118 34.5 118.949 36.8303 113.424 24.7767Z" fill="black"/>
<path d="M163.28 114.626L154.677 95.0196C150.372 86.771 143.983 79.793 136.145 74.7791C128.485 69.8146 119.791 66.6191 110.936 64.5581C106.475 63.5176 102.035 62.5777 97.446 62.5777H79.629C76.7054 62.5777 73.7449 62.2723 70.8347 62.7153C68.485 63.051 66.1589 63.5276 63.8361 64.0009C59.466 64.8737 55.1491 65.9944 50.9063 67.3576C43.3539 69.8247 36.1002 73.3592 30.028 78.5419C24.7883 83.0129 20.173 88.7796 17.2326 95.033L7.83398 115.039L38.5203 125.018L43.8909 195.719H126.35L131.58 125.108L163.28 114.626Z" fill="#4775F4"/>
<path d="M38.5171 125.384H38.45C38.3513 125.366 38.2637 125.309 38.2065 125.227C38.1492 125.145 38.1269 125.043 38.1446 124.944L43.9717 92.4855C43.9797 92.4362 43.9976 92.389 44.0243 92.3468C44.0509 92.3045 44.0858 92.2681 44.1268 92.2396C44.1678 92.2111 44.2142 92.1911 44.2631 92.1809C44.3119 92.1706 44.3624 92.1703 44.4114 92.18C44.5101 92.198 44.5977 92.2543 44.6549 92.3368C44.7122 92.4192 44.7345 92.5209 44.7168 92.6197L38.8931 125.072C38.8767 125.159 38.8301 125.239 38.7614 125.296C38.6928 125.353 38.6064 125.384 38.5171 125.384Z" fill="black"/>
<path d="M131.224 125.384C131.141 125.383 131.061 125.355 130.995 125.304C130.93 125.253 130.883 125.182 130.861 125.102L122.268 92.6432C122.252 92.5941 122.246 92.5421 122.25 92.4906C122.255 92.439 122.27 92.3889 122.295 92.3434C122.319 92.2979 122.353 92.2578 122.393 92.2258C122.434 92.1937 122.481 92.1703 122.531 92.157C122.581 92.1437 122.633 92.1408 122.684 92.1484C122.735 92.156 122.784 92.1741 122.828 92.2014C122.872 92.2287 122.91 92.2647 122.94 92.3072C122.969 92.3497 122.99 92.3978 123 92.4485L131.58 124.907C131.604 125.005 131.59 125.108 131.539 125.194C131.488 125.281 131.405 125.344 131.308 125.37C131.28 125.377 131.252 125.382 131.224 125.384Z" fill="black"/>
<path d="M85.9566 74.5174C79.2937 74.5174 74.1278 67.9988 74.9166 60.5874L76.407 46.6171H95.5029L97.0066 60.5706C97.7854 67.982 92.6195 74.5174 85.9566 74.5174Z" fill="url(#paint0_linear_896_1210)"/>
<path d="M97.0398 27.2358C88.8899 27.2358 83.9489 24.4766 80.9279 20.8347C81.6522 23.0311 82.5385 25.1707 83.5797 27.2358C78.4508 24.1343 76.7724 19.1799 76.2219 16.3569C74.5941 17.4769 73.2631 18.9761 72.3439 20.7252C71.4246 22.4743 70.9446 24.4207 70.9453 26.3966V29.8942C70.8245 29.8942 70.7036 29.8573 70.5794 29.8573C69.4221 29.8573 68.3122 30.3171 67.4939 31.1354C66.6756 31.9537 66.2158 33.0636 66.2158 34.2209C66.2158 35.3782 66.6756 36.4881 67.4939 37.3065C68.3122 38.1248 69.4221 38.5846 70.5794 38.5846C70.7036 38.5846 70.8245 38.5577 70.9453 38.5476V39.0511C70.9453 47.4427 77.568 56.8212 85.9629 56.8212C94.3578 56.8212 101.346 47.4461 101.346 39.0511V38.5678C102.455 38.4989 103.495 38.0101 104.256 37.2009C105.016 36.3917 105.439 35.323 105.439 34.2125C105.439 33.1021 105.016 32.0334 104.256 31.2242C103.495 30.415 102.455 29.9261 101.346 29.8573V26.9102C99.9218 27.1333 98.4817 27.2422 97.0398 27.2358Z" fill="url(#paint1_linear_896_1210)"/>
<path d="M11.374 116.16L34.5852 123.746L24.0109 156.098C23.0622 159.001 20.9995 161.407 18.2764 162.789C15.5532 164.17 12.3929 164.414 9.49046 163.465L8.16639 163.032C5.26398 162.084 2.85731 160.021 1.4758 157.298C0.0942846 154.575 -0.148894 151.414 0.799758 148.512L11.374 116.16Z" fill="#FA6964"/>
<path d="M66.3103 160.447L13.0002 164.995C11.3473 165.137 9.68311 164.933 8.11297 164.398C6.54283 163.862 5.10102 163.006 3.87888 161.885C2.65674 160.763 1.68091 159.399 1.0132 157.881C0.345499 156.362 0.000478471 154.721 0 153.063L0 152.583C0 149.256 0 142.019 8.86823 141.17L66.3103 140.479V160.447Z" fill="url(#paint2_linear_896_1210)"/>
<path d="M163.269 162.502L161.945 162.935C160.507 163.405 158.992 163.587 157.484 163.471C155.977 163.355 154.507 162.943 153.159 162.259C151.81 161.575 150.61 160.632 149.626 159.484C148.642 158.336 147.894 157.006 147.424 155.568L136.852 123.223L160.06 115.637L170.632 147.983C171.581 150.885 171.338 154.046 169.956 156.769C168.575 159.492 166.168 161.555 163.265 162.503L163.269 162.502Z" fill="#FA6964"/>
<path d="M105.126 159.914L158.433 164.475C160.086 164.617 161.75 164.413 163.321 163.877C164.891 163.342 166.333 162.486 167.555 161.363C168.777 160.241 169.753 158.877 170.421 157.358C171.088 155.839 171.433 154.198 171.433 152.539V152.056C171.433 148.729 171.433 141.492 162.565 140.643L105.126 139.972V159.914Z" fill="url(#paint3_linear_896_1210)"/>
<path d="M91.6354 180.063L74.6676 294.394L36.1402 293.84C36.1402 293.84 14.8222 133.806 77.0374 155.563C81.954 157.292 86.1082 160.691 88.7758 165.168C91.4435 169.645 92.4555 174.917 91.6354 180.063Z" fill="#050542"/>
<path d="M83.7745 184.689L115.159 294.115L150.206 290.087C150.206 290.087 154.72 129.858 95.4388 158.668C90.7549 160.953 87.0215 164.809 84.8898 169.564C82.7581 174.319 82.3634 179.672 83.7745 184.689Z" fill="#050542"/>
<path d="M129.026 178.08H43.5394C42.763 178.08 42.0144 177.791 41.4405 177.268C40.8667 176.745 40.509 176.026 40.4379 175.253L33.9428 105.231C33.9031 104.799 33.9539 104.364 34.0919 103.953C34.2299 103.542 34.4521 103.164 34.7442 102.844C35.0364 102.523 35.3922 102.268 35.7888 102.092C36.1854 101.917 36.6141 101.827 37.0477 101.827H136.74C137.178 101.827 137.611 101.92 138.011 102.098C138.41 102.277 138.768 102.538 139.06 102.864C139.353 103.19 139.573 103.574 139.707 103.991C139.841 104.408 139.885 104.849 139.838 105.284L132.118 175.307C132.033 176.068 131.671 176.771 131.101 177.283C130.53 177.794 129.792 178.078 129.026 178.08Z" fill="#BBE0F8"/>
<path d="M95.1318 142.822C96.7106 138.293 94.3194 133.342 89.7909 131.763C85.2623 130.185 80.3114 132.576 78.7326 137.104C77.1539 141.633 79.5451 146.584 84.0736 148.163C88.6021 149.741 93.5531 147.35 95.1318 142.822Z" fill="#72C4F4"/>
<path d="M135.366 103.697H38.2119V104.509H135.366V103.697Z" fill="#72C4F4"/>
</g>
<defs>
<linearGradient id="paint0_linear_896_1210" x1="85.9566" y1="81.5563" x2="85.9566" y2="46.9863" gradientUnits="userSpaceOnUse">
<stop stop-color="#FFACAA"/>
<stop offset="0.15" stop-color="#FFA7A4"/>
<stop offset="0.33" stop-color="#FE9795"/>
<stop offset="0.54" stop-color="#FC7E7B"/>
<stop offset="0.66" stop-color="#FB6B67"/>
</linearGradient>
<linearGradient id="paint1_linear_896_1210" x1="85.2211" y1="75.8466" x2="86.2012" y2="20.3379" gradientUnits="userSpaceOnUse">
<stop stop-color="#FFACAA"/>
<stop offset="0.95" stop-color="#FB6B67"/>
</linearGradient>
<linearGradient id="paint2_linear_896_1210" x1="79.7335" y1="143.805" x2="-32.1901" y2="162.347" gradientUnits="userSpaceOnUse">
<stop offset="0.16" stop-color="#FFACAC"/>
<stop offset="0.3" stop-color="#FFA6A5"/>
<stop offset="0.49" stop-color="#FD9492"/>
<stop offset="0.72" stop-color="#FB7672"/>
<stop offset="0.81" stop-color="#FA6964"/>
</linearGradient>
<linearGradient id="paint3_linear_896_1210" x1="113.917" y1="147.091" x2="181.677" y2="157.879" gradientUnits="userSpaceOnUse">
<stop offset="0.16" stop-color="#FFACAC"/>
<stop offset="0.3" stop-color="#FFA6A5"/>
<stop offset="0.49" stop-color="#FD9492"/>
<stop offset="0.72" stop-color="#FB7672"/>
<stop offset="0.81" stop-color="#FA6964"/>
</linearGradient>
<clipPath id="clip0_896_1210">
<rect width="171.437" height="333.918" fill="white"/>
</clipPath>
</defs>
</svg>
