<svg width="175" height="45" viewBox="0 0 175 45" fill="none" xmlns="http://www.w3.org/2000/svg">
<path fill-rule="evenodd" clip-rule="evenodd" d="M16.6047 2.62297C16.5883 2.7604 16.6139 2.89971 16.6778 3.02123C16.7814 3.29843 16.8627 3.58408 16.9208 3.87524C17.4246 6.32847 17.4068 6.28946 18.5922 6.35926C18.9758 6.37203 19.3577 6.41735 19.7341 6.49475C19.8665 6.53992 20.2814 6.6713 20.6568 6.78421C21.559 7.04893 22.4328 7.40869 23.2646 7.85789C28.8379 11.2349 31.0171 18.687 28.0536 24.2216C27.937 24.4269 27.775 24.7431 27.6901 24.9032C26.9732 26.1848 26.0317 27.3156 24.9143 28.2371C24.6772 28.4424 24.4421 28.6477 24.3947 28.6949C24.1971 28.9002 23.1125 29.4832 23.0651 29.4237C22.8938 29.0429 22.7614 28.6445 22.67 28.2351C22.6162 28.0258 22.5502 27.8201 22.4724 27.6192C22.3927 27.4015 22.3267 27.1786 22.2748 26.952C22.2205 26.7268 22.1545 26.5047 22.0773 26.2868C22.0239 26.1493 21.9192 25.8106 21.8441 25.5375C21.7691 25.2645 21.6782 24.9627 21.6466 24.8703C21.615 24.778 21.4648 24.3099 21.3245 23.8295C21.1843 23.3491 20.803 22.0928 20.479 21.0396C20.155 19.9865 19.8665 19.0298 19.8349 18.9148C19.7913 18.7595 19.7399 18.6067 19.6808 18.4571C19.6255 18.3195 19.5208 17.9828 19.4457 17.7077C19.3706 17.4326 19.2778 17.1329 19.2481 17.0426C19.2185 16.9523 19.0822 16.5191 18.9676 16.0839C18.7542 15.2853 18.1773 13.4356 18.0509 13.1277C18.0114 13.0353 17.9146 12.7171 17.8336 12.3989C17.7934 12.1951 17.7156 12.0012 17.6044 11.8282C17.5708 11.8282 17.5431 11.7502 17.5431 11.6558C17.5006 11.3933 17.4344 11.1356 17.3456 10.8859C17.2409 10.5575 17.0591 9.93132 16.9386 9.49611C16.5929 8.23562 16.2432 7.14347 16.097 6.87249C15.9756 6.57819 15.8849 6.27125 15.8263 5.95689C15.7716 5.675 15.701 5.39669 15.6149 5.12341C15.419 4.49881 15.2535 3.86434 15.119 3.22242C15.0999 3.05481 15.0308 2.8976 14.9215 2.77283C14.793 2.72151 13.7045 2.91038 13.578 3.00481C13.4635 3.06252 13.3418 3.10329 13.2165 3.12593C12.2248 3.4228 11.2634 3.81952 10.3459 4.31046C9.9705 4.53012 9.56944 4.76005 9.45288 4.82574C9.33631 4.89143 8.93526 5.16858 8.55988 5.43135L7.87829 5.91583L7.82494 5.22811C7.79729 4.85037 7.76963 4.21808 7.76568 3.82392C7.7558 2.92269 7.72616 2.88779 6.9359 2.95143C6.61387 2.97812 5.72088 3.03355 4.9484 3.07461C4.17593 3.11567 3.51408 3.15467 3.47655 3.15878C3.43901 3.16288 3.45481 5.62227 3.53186 6.24841C3.55162 6.40853 3.59311 7.62796 3.62472 8.95619L3.68004 11.3704L3.48247 11.781C3.20782 12.3348 2.96376 12.9043 2.75148 13.487C2.71987 13.6019 2.66653 13.7703 2.62899 13.8626C1.76959 16.0264 1.79922 21.4132 2.66653 23.5298C2.72185 23.6673 2.81471 23.9281 2.8641 24.1087C2.94394 24.3504 3.03762 24.5869 3.14464 24.817C3.24342 25.0223 3.38764 25.3446 3.46667 25.5293C3.74542 26.2408 4.09294 26.9211 4.50388 27.5596C4.75084 27.9435 5.0867 28.4239 5.25068 28.6272C6.10811 29.6988 6.63363 30.3044 6.94973 30.5672C7.1473 30.7273 7.34486 30.9018 7.3903 30.9552C8.00107 31.4851 8.64381 31.9741 9.31458 32.4189C9.44073 32.4804 9.56111 32.5539 9.67415 32.6385C10.1673 32.9295 10.6758 33.1914 11.1974 33.4228C11.8476 33.7255 12.517 33.982 13.2007 34.1905C13.3264 34.2126 13.4483 34.2541 13.5622 34.3137C13.6879 34.3708 13.8211 34.4082 13.9573 34.4246C14.1332 34.4513 14.6192 34.5375 15.038 34.6155C15.5488 34.7043 16.0639 34.7632 16.581 34.792L17.3713 34.8249V34.6196C17.3578 34.4396 17.3192 34.2625 17.2567 34.094C17.2093 33.9093 17.0117 33.1867 16.8556 32.4723C16.5296 31.0352 16.4605 30.912 15.9192 30.8505C15.7079 30.8258 15.4982 30.7887 15.2909 30.7396L14.4908 30.5343C13.5809 30.2759 12.6955 29.9324 11.8454 29.5079C10.6896 28.9515 8.96884 27.34 7.8289 25.7469C7.17157 24.7429 6.64789 23.6511 6.27209 22.5013C6.22151 22.315 6.15541 22.1337 6.07452 21.9593C5.98364 21.618 5.9176 21.2701 5.87696 20.9185C5.79793 20.3909 5.7031 19.853 5.66359 19.7196C5.57073 19.4014 5.57468 18.2312 5.66359 17.6667C5.70508 17.4183 5.79793 16.8578 5.86115 16.4226C5.9076 16.0997 5.97359 15.7802 6.05872 15.466C6.09823 15.3736 6.18911 15.0923 6.25628 14.8501C6.74822 13.1708 7.52267 11.8385 9.0617 10.034C9.68873 9.40934 10.3626 8.83751 11.0769 8.3239L11.4107 8.10834L11.5411 8.54356C11.6142 8.78169 11.7841 9.3524 11.9185 9.8102C12.0528 10.268 12.2346 10.7525 12.2899 10.9167C12.3986 11.2267 12.608 11.9165 13.0802 13.5403C13.5464 15.1272 13.7736 15.8601 13.8487 16.0038C13.9403 16.2597 14.0175 16.5208 14.0798 16.786C14.1347 17.0375 14.2128 17.2829 14.313 17.5189C14.3992 17.7086 14.4655 17.9076 14.5105 18.1122C14.5797 18.3873 14.7081 18.8327 14.801 19.1037C14.8712 19.2964 14.9261 19.4949 14.9649 19.697C14.9857 19.817 15.0265 19.9323 15.0854 20.0378C15.1459 20.1533 15.1861 20.2792 15.204 20.4094C15.3875 21.1834 15.6145 21.9457 15.8836 22.6922C15.9609 22.8933 16.0268 23.099 16.0812 23.3081C16.1258 23.4923 16.1819 23.6734 16.2491 23.85C16.2886 23.9424 16.3913 24.2606 16.4763 24.5583C16.5613 24.856 16.7252 25.4185 16.8418 25.8065C16.9584 26.1945 17.1401 26.8329 17.2508 27.223C17.3614 27.613 17.5748 28.3049 17.7289 28.7647C17.883 29.2246 18.0489 29.746 18.0983 29.9308C18.1342 30.0811 18.2017 30.2213 18.2959 30.3413C18.4053 30.5149 18.4818 30.7086 18.5211 30.912C18.5863 31.181 18.6772 31.5279 18.7187 31.6614C19.0346 32.7885 19.2899 33.9331 19.4832 35.0897C19.5827 35.6569 19.7294 36.2139 19.9218 36.7546C20.151 37.4423 20.4177 38.2881 20.5145 38.633C20.5846 38.8814 20.6684 39.1254 20.7654 39.3639C20.8667 39.6622 20.9531 39.9657 21.0242 40.2733C21.1408 40.727 21.3028 41.2998 21.3818 41.5584C21.4609 41.8171 21.6802 42.5089 21.8639 43.1145C22.3104 44.5762 22.3874 44.6337 23.3456 44.2169C23.6093 44.1339 23.8771 44.0653 24.1477 44.0117C24.4994 43.9357 24.9874 43.8064 25.2304 43.7263C25.5642 43.6246 25.9032 43.5423 26.2459 43.4799C26.9788 43.3506 26.9848 43.3301 26.641 42.1476C26.4829 41.618 26.2241 40.7537 26.0681 40.2261C25.5643 38.5304 25.3074 37.6907 25.2422 37.5204C25.2067 37.428 25.1336 37.1857 25.0802 36.9784C25.0257 36.7694 24.9598 36.5637 24.8827 36.3625C24.776 36.1059 24.4658 35.0753 24.2307 34.1987C24.1768 33.978 24.1034 33.7629 24.0114 33.5562C23.964 33.4782 23.9423 33.4022 23.962 33.3899C23.9818 33.3776 24.3572 33.1846 24.7839 32.9588C26.7892 31.9323 29.154 29.7337 30.3434 27.806C30.4783 27.605 30.5947 27.3912 30.6911 27.1675C30.692 27.1456 30.6985 27.1244 30.71 27.106C30.7214 27.0876 30.7374 27.0727 30.7563 27.0628C31.1178 26.9068 32.0246 24.739 32.4356 23.0391C32.5916 22.3966 32.7477 21.7971 32.7813 21.7048C33.0816 20.8836 33.0698 15.9751 32.7635 15.6302C32.7152 15.5467 32.6912 15.4504 32.6944 15.3531C32.6944 14.3964 31.5742 11.3827 30.7681 10.1715C30.6931 10.0566 30.4204 9.62544 30.1754 9.2128C29.6657 8.39164 27.7395 6.30178 27.0934 5.87272C26.8959 5.73928 26.5363 5.47856 26.3032 5.29175C25.408 4.65831 24.4551 4.11785 23.4582 3.67816C23.1935 3.58373 22.9051 3.47287 22.8161 3.42771C22.6067 3.34657 22.393 3.27803 22.176 3.22242C21.9582 3.16757 21.7438 3.09901 21.534 3.01713C20.7259 2.62708 16.7154 2.31914 16.6047 2.62297Z" fill="#376FFF"/>
<path d="M65.1165 11.0455V28.5H61.929L54.3352 17.5142H54.2074V28.5H50.517V11.0455H53.7557L61.2898 22.0227H61.4432V11.0455H65.1165ZM74.0632 28.7557C72.7166 28.7557 71.5575 28.483 70.5859 27.9375C69.62 27.3864 68.8757 26.608 68.353 25.6023C67.8303 24.5909 67.5689 23.3949 67.5689 22.0142C67.5689 20.6676 67.8303 19.4858 68.353 18.4688C68.8757 17.4517 69.6115 16.6591 70.5604 16.0909C71.5149 15.5227 72.6342 15.2386 73.9183 15.2386C74.782 15.2386 75.5859 15.3778 76.3303 15.6562C77.0803 15.929 77.7337 16.3409 78.2905 16.892C78.853 17.4432 79.2905 18.1364 79.603 18.9716C79.9155 19.8011 80.0717 20.7727 80.0717 21.8864V22.8835H69.0178V20.6335H76.6541C76.6541 20.1108 76.5405 19.6477 76.3132 19.2443C76.0859 18.8409 75.7706 18.5256 75.3672 18.2983C74.9695 18.0653 74.5064 17.9489 73.978 17.9489C73.4268 17.9489 72.9382 18.0767 72.5121 18.3324C72.0916 18.5824 71.7621 18.9205 71.5234 19.3466C71.2848 19.767 71.1626 20.2358 71.157 20.7528V22.892C71.157 23.5398 71.2763 24.0994 71.5149 24.571C71.7592 25.0426 72.103 25.4062 72.5462 25.6619C72.9893 25.9176 73.5149 26.0455 74.1229 26.0455C74.5263 26.0455 74.8956 25.9886 75.2308 25.875C75.5661 25.7614 75.853 25.5909 76.0916 25.3636C76.3303 25.1364 76.5121 24.858 76.6371 24.5284L79.995 24.75C79.8246 25.5568 79.4751 26.2614 78.9467 26.8636C78.424 27.4602 77.7479 27.9261 76.9183 28.2614C76.0945 28.5909 75.1428 28.7557 74.0632 28.7557ZM93.3331 19.142L90.0092 19.3466C89.9524 19.0625 89.8303 18.8068 89.6428 18.5795C89.4553 18.3466 89.2081 18.1619 88.9013 18.0256C88.6001 17.8835 88.2393 17.8125 87.8189 17.8125C87.2564 17.8125 86.782 17.9318 86.3956 18.1705C86.0092 18.4034 85.8161 18.7159 85.8161 19.108C85.8161 19.4205 85.9411 19.6847 86.1911 19.9006C86.4411 20.1165 86.87 20.2898 87.478 20.4205L89.8473 20.8977C91.12 21.1591 92.0689 21.5795 92.6939 22.1591C93.3189 22.7386 93.6314 23.5 93.6314 24.4432C93.6314 25.3011 93.3786 26.054 92.8729 26.7017C92.3729 27.3494 91.6854 27.8551 90.8104 28.2188C89.9411 28.5767 88.9382 28.7557 87.8018 28.7557C86.0689 28.7557 84.6882 28.3949 83.6598 27.6733C82.6371 26.946 82.0376 25.9574 81.8615 24.7074L85.4325 24.5199C85.5405 25.0483 85.8018 25.4517 86.2166 25.7301C86.6314 26.0028 87.1626 26.1392 87.8104 26.1392C88.4467 26.1392 88.9581 26.017 89.3445 25.7727C89.7365 25.5227 89.9354 25.2017 89.9411 24.8097C89.9354 24.4801 89.7962 24.2102 89.5234 24C89.2507 23.7841 88.8303 23.6193 88.2621 23.5057L85.995 23.054C84.7166 22.7983 83.7649 22.3551 83.1399 21.7244C82.5206 21.0937 82.2109 20.2898 82.2109 19.3125C82.2109 18.4716 82.4382 17.7472 82.8928 17.1392C83.353 16.5312 83.9979 16.0625 84.8274 15.733C85.6626 15.4034 86.6399 15.2386 87.7592 15.2386C89.4126 15.2386 90.7138 15.5881 91.6626 16.2869C92.6172 16.9858 93.174 17.9375 93.3331 19.142ZM102.881 15.4091V18.1364H94.9972V15.4091H102.881ZM96.7869 12.2727H100.418V24.4773C100.418 24.8125 100.469 25.0739 100.571 25.2614C100.673 25.4432 100.815 25.571 100.997 25.6449C101.185 25.7187 101.401 25.7557 101.645 25.7557C101.815 25.7557 101.986 25.7415 102.156 25.7131C102.327 25.679 102.457 25.6534 102.548 25.6364L103.119 28.3381C102.938 28.3949 102.682 28.4602 102.352 28.5341C102.023 28.6136 101.622 28.6619 101.151 28.679C100.276 28.7131 99.5085 28.5966 98.8494 28.3295C98.196 28.0625 97.6875 27.6477 97.3239 27.0852C96.9602 26.5227 96.7813 25.8125 96.7869 24.9545V12.2727ZM111.902 22.4318H115.038L116.615 24.4602L118.166 26.267L121.089 29.9318H117.646L115.635 27.4602L114.604 25.9943L111.902 22.4318ZM121.354 19.7727C121.354 21.6761 120.993 23.2955 120.271 24.6307C119.555 25.9659 118.578 26.9858 117.339 27.6903C116.107 28.3892 114.72 28.7386 113.18 28.7386C111.629 28.7386 110.237 28.3864 109.004 27.6818C107.771 26.9773 106.797 25.9574 106.081 24.6222C105.365 23.2869 105.007 21.6705 105.007 19.7727C105.007 17.8693 105.365 16.25 106.081 14.9148C106.797 13.5795 107.771 12.5625 109.004 11.8636C110.237 11.1591 111.629 10.8068 113.18 10.8068C114.72 10.8068 116.107 11.1591 117.339 11.8636C118.578 12.5625 119.555 13.5795 120.271 14.9148C120.993 16.25 121.354 17.8693 121.354 19.7727ZM117.612 19.7727C117.612 18.5398 117.428 17.5 117.058 16.6534C116.695 15.8068 116.18 15.1648 115.516 14.7273C114.851 14.2898 114.072 14.071 113.18 14.071C112.288 14.071 111.51 14.2898 110.845 14.7273C110.18 15.1648 109.663 15.8068 109.294 16.6534C108.93 17.5 108.749 18.5398 108.749 19.7727C108.749 21.0057 108.93 22.0455 109.294 22.892C109.663 23.7386 110.18 24.3807 110.845 24.8182C111.51 25.2557 112.288 25.4744 113.18 25.4744C114.072 25.4744 114.851 25.2557 115.516 24.8182C116.18 24.3807 116.695 23.7386 117.058 22.892C117.428 22.0455 117.612 21.0057 117.612 19.7727ZM132.414 22.9261V15.4091H136.045V28.5H132.559V26.1222H132.423C132.127 26.8892 131.636 27.5057 130.948 27.9716C130.266 28.4375 129.434 28.6705 128.451 28.6705C127.576 28.6705 126.806 28.4716 126.141 28.0739C125.477 27.6761 124.957 27.1108 124.582 26.3778C124.212 25.6449 124.025 24.767 124.019 23.7443V15.4091H127.65V23.0966C127.656 23.8693 127.863 24.4801 128.272 24.929C128.681 25.3778 129.229 25.6023 129.917 25.6023C130.354 25.6023 130.763 25.5028 131.144 25.304C131.525 25.0994 131.832 24.7983 132.065 24.4006C132.303 24.0028 132.42 23.5114 132.414 22.9261ZM144.915 28.7557C143.568 28.7557 142.409 28.483 141.438 27.9375C140.472 27.3864 139.727 26.608 139.205 25.6023C138.682 24.5909 138.42 23.3949 138.42 22.0142C138.42 20.6676 138.682 19.4858 139.205 18.4688C139.727 17.4517 140.463 16.6591 141.412 16.0909C142.366 15.5227 143.486 15.2386 144.77 15.2386C145.634 15.2386 146.438 15.3778 147.182 15.6562C147.932 15.929 148.585 16.3409 149.142 16.892C149.705 17.4432 150.142 18.1364 150.455 18.9716C150.767 19.8011 150.923 20.7727 150.923 21.8864V22.8835H139.869V20.6335H147.506C147.506 20.1108 147.392 19.6477 147.165 19.2443C146.938 18.8409 146.622 18.5256 146.219 18.2983C145.821 18.0653 145.358 17.9489 144.83 17.9489C144.278 17.9489 143.79 18.0767 143.364 18.3324C142.943 18.5824 142.614 18.9205 142.375 19.3466C142.136 19.767 142.014 20.2358 142.009 20.7528V22.892C142.009 23.5398 142.128 24.0994 142.366 24.571C142.611 25.0426 142.955 25.4062 143.398 25.6619C143.841 25.9176 144.366 26.0455 144.974 26.0455C145.378 26.0455 145.747 25.9886 146.082 25.875C146.418 25.7614 146.705 25.5909 146.943 25.3636C147.182 25.1364 147.364 24.858 147.489 24.5284L150.847 24.75C150.676 25.5568 150.327 26.2614 149.798 26.8636C149.276 27.4602 148.599 27.9261 147.77 28.2614C146.946 28.5909 145.994 28.7557 144.915 28.7557ZM164.185 19.142L160.861 19.3466C160.804 19.0625 160.682 18.8068 160.494 18.5795C160.307 18.3466 160.06 18.1619 159.753 18.0256C159.452 17.8835 159.091 17.8125 158.67 17.8125C158.108 17.8125 157.634 17.9318 157.247 18.1705C156.861 18.4034 156.668 18.7159 156.668 19.108C156.668 19.4205 156.793 19.6847 157.043 19.9006C157.293 20.1165 157.722 20.2898 158.33 20.4205L160.699 20.8977C161.972 21.1591 162.92 21.5795 163.545 22.1591C164.17 22.7386 164.483 23.5 164.483 24.4432C164.483 25.3011 164.23 26.054 163.724 26.7017C163.224 27.3494 162.537 27.8551 161.662 28.2188C160.793 28.5767 159.79 28.7557 158.653 28.7557C156.92 28.7557 155.54 28.3949 154.511 27.6733C153.489 26.946 152.889 25.9574 152.713 24.7074L156.284 24.5199C156.392 25.0483 156.653 25.4517 157.068 25.7301C157.483 26.0028 158.014 26.1392 158.662 26.1392C159.298 26.1392 159.81 26.017 160.196 25.7727C160.588 25.5227 160.787 25.2017 160.793 24.8097C160.787 24.4801 160.648 24.2102 160.375 24C160.102 23.7841 159.682 23.6193 159.114 23.5057L156.847 23.054C155.568 22.7983 154.616 22.3551 153.991 21.7244C153.372 21.0937 153.062 20.2898 153.062 19.3125C153.062 18.4716 153.29 17.7472 153.744 17.1392C154.205 16.5312 154.849 16.0625 155.679 15.733C156.514 15.4034 157.491 15.2386 158.611 15.2386C160.264 15.2386 161.565 15.5881 162.514 16.2869C163.469 16.9858 164.026 17.9375 164.185 19.142ZM173.732 15.4091V18.1364H165.849V15.4091H173.732ZM167.638 12.2727H171.269V24.4773C171.269 24.8125 171.32 25.0739 171.423 25.2614C171.525 25.4432 171.667 25.571 171.849 25.6449C172.036 25.7187 172.252 25.7557 172.496 25.7557C172.667 25.7557 172.837 25.7415 173.008 25.7131C173.178 25.679 173.309 25.6534 173.4 25.6364L173.971 28.3381C173.789 28.3949 173.533 28.4602 173.204 28.5341C172.874 28.6136 172.474 28.6619 172.002 28.679C171.127 28.7131 170.36 28.5966 169.701 28.3295C169.048 28.0625 168.539 27.6477 168.175 27.0852C167.812 26.5227 167.633 25.8125 167.638 24.9545V12.2727Z" fill="#0A0A0A"/>
</svg>
