<svg width="285" height="153" viewBox="0 0 285 153" fill="none" xmlns="http://www.w3.org/2000/svg">
<g clip-path="url(#clip0_1018_5171)">
<path d="M259.208 191.926H234.413L225.293 148.446L218.973 191.926H192.997L196.569 159.561L198.821 139.193L200.177 126.915L235.415 117.836L251.325 118.71L259.208 191.926Z" fill="#6B92AF"/>
<path d="M223.754 145.214L211.136 137.809L207.578 135.722C207.348 135.589 207.183 135.961 207.408 136.094L220.026 143.495L223.584 145.587C223.813 145.715 223.979 145.348 223.754 145.214Z" fill="#387093"/>
<path d="M222.995 146.147L213.963 143.849C213.705 143.78 213.645 144.189 213.898 144.254L222.931 146.552C223.184 146.635 223.248 146.212 222.995 146.147Z" fill="#387093"/>
<path d="M253.076 161.896L250.014 135.212L248.277 120.098C248.274 120.071 248.266 120.046 248.253 120.022C248.24 119.999 248.222 119.978 248.201 119.962C248.18 119.945 248.157 119.933 248.131 119.925C248.105 119.918 248.078 119.916 248.052 119.919C248.025 119.922 247.999 119.93 247.976 119.943C247.953 119.956 247.932 119.973 247.915 119.994C247.899 120.015 247.886 120.039 247.879 120.065C247.872 120.09 247.869 120.117 247.872 120.144L250.948 146.966C251.974 155.853 252.996 164.74 254.014 173.627C254.593 178.665 255.17 183.703 255.747 188.74C255.757 188.791 255.786 188.835 255.828 188.865C255.87 188.895 255.921 188.908 255.972 188.903C256.023 188.897 256.07 188.873 256.104 188.834C256.138 188.796 256.156 188.746 256.156 188.695L253.076 161.896Z" fill="#387093"/>
<path d="M284.963 32.2366C284.581 35.7761 283.616 39.2236 282.665 42.6528C281.782 45.8061 280.902 48.9579 280.026 52.1082L270.106 51.8646C269.064 51.1945 268.186 50.2991 267.537 49.2444C266.651 47.7418 265.932 46.1464 265.395 44.4869C264.86 42.8255 264.104 41.2438 263.147 39.7844C262.717 39.2801 262.377 38.7045 262.145 38.0837C261.966 37.4447 262.168 36.6357 262.779 36.3783C263.391 36.1209 264.158 36.5805 264.696 37.054C266.648 38.7649 268.324 40.7666 269.665 42.9883H269.693C269.883 37.3068 270.07 31.6238 270.253 25.9392C270.246 25.626 270.298 25.3142 270.405 25.0198C270.459 24.8684 270.554 24.7348 270.679 24.6334C270.803 24.5321 270.954 24.467 271.113 24.4452C271.706 24.4085 272.032 25.1164 272.175 25.6955C273.081 29.3627 273.568 33.1208 273.627 36.8977C273.897 32.9353 274.294 28.9807 274.818 25.0336C274.928 24.2062 275.066 23.3282 275.627 22.7077C275.727 22.583 275.853 22.4823 275.997 22.413C276.141 22.3438 276.299 22.3078 276.459 22.3078C277.052 22.3675 277.282 23.1076 277.378 23.6868C277.944 28.0502 278.013 32.4635 277.585 36.8425C278.296 33.11 279.012 29.3775 279.732 25.645C279.745 25.4447 279.798 25.2491 279.887 25.0692C279.976 24.8894 280.1 24.7289 280.251 24.5969C280.798 24.2522 281.515 24.7486 281.823 25.314C282.366 26.3161 282.283 27.525 282.177 28.6558C281.778 31.883 281.209 35.0867 280.472 38.2537C281.299 35.9738 282.159 33.7076 283.051 31.4552C283.23 30.9955 283.51 30.4715 283.97 30.4118C284.174 30.403 284.375 30.4625 284.541 30.5806C284.708 30.6988 284.83 30.8691 284.889 31.0645C285.005 31.4442 285.03 31.8455 284.963 32.2366Z" fill="#E88846"/>
<path d="M198.821 139.193L196.569 159.561C194.565 158.958 192.556 156.168 191.945 154.555C190.672 151.572 191.025 148.271 190.989 145.095C191.145 142.888 190.336 140.241 191.448 138.26C193.131 137.037 195.47 138.2 197.277 138.623C197.818 138.732 198.339 138.924 198.821 139.193Z" fill="#E88846"/>
<path d="M279.737 51.5796L269.266 51.3175H268.682L266.333 60.6764C266.333 60.6764 260.633 47.8057 255.926 42.1058C251.219 36.4059 235.416 36.5621 235.416 36.5621L214.174 40.9106C214.174 40.9106 199.552 49.5202 195.277 52.4989C191.002 55.4776 188.782 56.1027 187.872 72.5635C186.962 89.0243 188.552 139.901 188.552 139.901C188.552 139.901 192.004 142.957 198.665 140.562L199.998 128.464C199.998 128.464 219.957 137.4 233.646 120.25C233.646 120.25 247.055 120.075 251.325 118.705L250.406 94.4392L251.325 76.6683C251.325 76.6683 260.325 95.6389 271.036 95.2344C281.746 94.8299 280.721 70.2284 280.946 51.6025L279.737 51.5796ZM202.683 106.979L203.064 85.1814L204.958 95.8872L202.683 106.979Z" fill="#2121E8"/>
<path d="M235.416 36.5713C235.416 36.5713 235.163 38.7869 234.607 41.4392C233.963 44.4777 232.92 48.0953 231.389 49.5938L229.55 48.7986L226.172 55.5925L219.621 51.0234L217.911 52.5081C217.911 52.5081 213.03 49.9983 210.81 42.9378C210.81 42.9378 211.269 40.1797 214.845 40.074L214.901 42.0414L223.873 46.1784L231.375 38.387L230.695 36.2817C232.251 35.7945 233.931 35.8976 235.416 36.5713Z" fill="#F4E9DC"/>
<path d="M280.859 37.3206C278.333 36.5055 275.698 36.0762 273.044 36.0473C272.782 36.0473 272.828 36.4472 273.09 36.4518C275.672 36.4843 278.235 36.9026 280.693 37.6929C280.941 37.7757 281.111 37.4033 280.859 37.3206Z" fill="#C4532C"/>
<path d="M278.101 40.2211C276.393 41.1686 274.831 42.3576 273.463 43.7514C273.274 43.9399 273.596 44.2111 273.78 44.0088C275.127 42.643 276.664 41.4788 278.344 40.5521C278.56 40.4234 278.317 40.097 278.101 40.2211Z" fill="#C4532C"/>
<path d="M202.016 67.2911L201.722 62.0279C201.722 61.7613 201.299 61.8072 201.313 62.0738C201.662 68.2916 202.008 74.511 202.352 80.7318L202.646 85.9997C202.646 86.2617 203.069 86.2157 203.055 85.9537C202.706 79.7359 202.359 73.515 202.016 67.2911Z" fill="#0F009E"/>
<path d="M251.44 75.9605C250.398 72.7734 249.247 69.6262 247.987 66.5188C247.624 65.6271 247.257 64.7399 246.875 63.8574C246.774 63.6137 246.392 63.7608 246.493 64.0044C247.814 67.0689 249.028 70.1916 250.134 73.3725C250.44 74.2919 250.747 75.2035 251.053 76.1076C251.15 76.3604 251.531 76.2087 251.44 75.9605Z" fill="#0F009E"/>
<path d="M249.867 75.8088L244.199 68.7988C244.034 68.592 243.703 68.831 243.868 69.0378L249.536 76.0478C249.702 76.2501 250.033 76.011 249.867 75.8088Z" fill="#0F009E"/>
<path d="M265.896 61.1821L262.876 72.3061C262.591 73.3587 262.302 74.4068 262.017 75.4594C261.948 75.7122 262.357 75.772 262.421 75.5238C263.432 71.8127 264.441 68.1032 265.446 64.3952L266.301 61.2464C266.37 60.989 265.965 60.9293 265.896 61.1821Z" fill="#0F009E"/>
<path d="M242.706 111.079L234.331 119.864C234.147 120.057 234.464 120.323 234.648 120.126L243.023 111.341C243.221 111.148 242.899 110.891 242.706 111.079Z" fill="#0F009E"/>
<path d="M237.691 112.955C234.579 116.563 231.398 120.176 227.61 123.095C224.016 125.853 219.842 128.027 215.291 128.611C212.64 128.97 209.941 128.708 207.408 127.848C207.16 127.761 206.99 128.133 207.238 128.22C211.742 129.811 216.725 129.282 221.078 127.462C225.431 125.642 229.095 122.7 232.372 119.422C234.349 117.446 236.188 115.34 238.008 113.23C238.183 113.014 237.866 112.757 237.691 112.955Z" fill="#0F009E"/>
<path d="M202.255 107.517C201.414 110.32 200.748 113.172 200.26 116.057C200.021 117.482 199.825 118.915 199.672 120.355C199.524 121.707 199.387 123.072 199.373 124.437C199.359 125.802 199.534 127.159 200.352 128.257C200.386 128.294 200.433 128.317 200.484 128.322C200.535 128.327 200.585 128.313 200.626 128.283C200.667 128.253 200.695 128.209 200.706 128.159C200.716 128.109 200.708 128.058 200.683 128.013C200.025 127.016 199.703 125.833 199.764 124.64C199.782 123.295 199.874 121.952 200.039 120.617C200.333 117.804 200.794 115.01 201.418 112.251C201.771 110.682 202.18 109.126 202.646 107.581C202.751 107.328 202.347 107.269 202.255 107.517Z" fill="#0F009E"/>
<path d="M234.689 74.5263C230.253 77.721 226.205 81.4235 222.628 85.5584C221.621 86.7259 220.651 87.9303 219.718 89.1576C219.562 89.3691 219.879 89.6173 220.035 89.4196C223.315 85.0747 227.095 81.1312 231.297 77.6704C232.474 76.699 233.684 75.7674 234.928 74.8757C235.144 74.7056 234.892 74.3746 234.689 74.5263Z" fill="#0F009E"/>
<path d="M232.768 83.2003L225.551 88.1555C225.33 88.3026 225.574 88.6152 225.79 88.4865L233.011 83.5312C233.227 83.3933 232.984 83.0624 232.768 83.2003Z" fill="#0F009E"/>
<path d="M223.588 46.9093C222.209 48.1169 220.913 49.4161 219.709 50.7981C219.539 50.9958 219.856 51.2578 220.026 51.0555C221.207 49.7003 222.477 48.4257 223.827 47.2403C224.025 47.0656 223.786 46.7346 223.588 46.9093Z" fill="#E2CAB0"/>
<path d="M229.573 48.4952C228.095 47.6962 226.558 47.0109 224.976 46.4451C224.728 46.3531 224.558 46.7254 224.806 46.8174C226.388 47.3832 227.925 48.0685 229.403 48.8675C229.637 48.9916 229.803 48.6193 229.573 48.4952Z" fill="#E2CAB0"/>
<path d="M229.219 15.8494C228.221 17.8819 226.485 19.4569 224.365 20.2531C222.474 20.9855 220.386 21.0326 218.463 20.3864C217.021 20.9211 215.5 21.2116 213.963 21.2459C212.626 21.2778 211.292 21.1089 210.005 20.7449C208.801 20.4409 207.706 19.8037 206.847 18.9062C205.146 17.0308 205.183 14.3877 205.606 12.0112C204.452 10.5954 203.574 8.82106 203.961 6.9548C204.112 6.18417 204.501 5.48027 205.073 4.94145C205.663 4.43008 206.338 4.02564 207.068 3.7463C207.859 3.43642 208.627 3.07084 209.366 2.65229C210.166 2.15125 210.902 1.54908 211.697 1.03885C213.076 0.151685 214.781 -0.445886 216.353 0.330956C216.959 0.629647 217.48 1.07654 217.867 1.63019C218.255 2.18385 218.496 2.82633 218.569 3.49808C219.83 2.84506 221.218 2.47485 222.637 2.41326C223.971 2.38809 225.281 2.76969 226.392 3.50728C230.295 6.1228 231.214 11.7997 229.219 15.8494Z" fill="#36344C"/>
<path d="M229.835 22.1975L230.18 24.1235C230.401 25.3561 230.387 26.6194 230.139 27.8468C229.9 29.0114 229.46 30.1253 228.838 31.138C227.925 32.6121 226.645 33.8244 225.124 34.6566C223.602 35.4889 221.891 35.9127 220.158 35.8868C218.424 35.8609 216.726 35.3861 215.23 34.5087C213.735 33.6313 212.492 32.3814 211.623 30.8806C211.045 29.885 210.645 28.7961 210.442 27.6629L210.092 25.7323C204.576 26.716 203.083 19.8394 205.142 17.8904L205.307 17.7479C206.746 16.5573 208.088 17.564 208.566 18.0145C207.771 14.1165 209.118 11.9514 209.118 11.9514C210.794 12.1844 212.491 12.2168 214.174 12.0479C216.231 11.8456 218.246 11.3342 220.15 10.531C221.464 9.95572 222.726 9.26988 223.924 8.48091C223.924 8.48091 227.367 11.3355 228.484 14.6635C228.484 14.6635 229.091 12.9949 230.562 12.8891C230.974 12.8653 231.386 12.9426 231.761 13.1144C234.4 14.2498 235.351 21.2184 229.835 22.1975Z" fill="#E88846"/>
<path d="M231.595 38.2078L223.859 46.2198L214.353 42.3448L214.293 40.0189L214.128 33.7627C215.236 34.6379 216.517 35.2683 217.886 35.6124C219.255 35.9564 220.682 36.0063 222.072 35.7587C223.461 35.5111 224.783 34.9717 225.949 34.176C227.116 33.3804 228.1 32.3465 228.837 31.1426L230.91 36.4886L231.595 38.2078Z" fill="#E88846"/>
<path d="M230.929 36.4886L231.596 38.2078L230.925 36.4886H230.929Z" fill="#E88846"/>
<path d="M228.856 31.1426C228.856 31.1426 226.595 41.715 214.312 40.0189L214.151 33.7627C215.259 34.6386 216.54 35.2696 217.909 35.6141C219.278 35.9585 220.705 36.0086 222.095 35.761C223.486 35.5134 224.807 34.9737 225.974 34.1776C227.14 33.3815 228.124 32.3471 228.861 31.1426H228.856Z" fill="#C4532C"/>
<path d="M221.768 24.6889C220.6 25.0842 219.428 25.4519 218.252 25.8013C218.206 23.0831 218.121 20.3664 217.999 17.6513C217.999 17.3663 217.539 17.4215 217.539 17.7065C217.668 20.5105 217.754 23.3175 217.796 26.1276C217.796 26.2839 217.98 26.3437 218.104 26.3069C219.382 25.93 220.656 25.5301 221.915 25.1026C222.205 25.0106 222.021 24.5969 221.768 24.6889Z" fill="#C4532C"/>
<path d="M224.687 24.9371C224.771 25.8049 224.619 26.6792 224.248 27.468C223.877 28.2568 223.299 28.9308 222.577 29.4189C222.338 29.5798 222.609 29.9337 222.848 29.7728C223.637 29.2386 224.267 28.5014 224.671 27.6389C225.076 26.7765 225.24 25.8208 225.147 24.8727C225.142 24.8426 225.132 24.8135 225.117 24.7872C225.101 24.761 225.081 24.738 225.057 24.7197C225.032 24.7013 225.005 24.6879 224.975 24.6803C224.946 24.6726 224.915 24.6709 224.885 24.6751C224.854 24.6793 224.825 24.6894 224.799 24.7049C224.773 24.7203 224.75 24.7408 224.732 24.7652C224.713 24.7895 224.7 24.8172 224.692 24.8467C224.685 24.8762 224.683 24.9069 224.687 24.9371Z" fill="#36344C"/>
<path d="M213.604 27.0975C214.569 27.0975 215.351 26.3155 215.351 25.3508C215.351 24.3861 214.569 23.604 213.604 23.604C212.639 23.604 211.857 24.3861 211.857 25.3508C211.857 26.3155 212.639 27.0975 213.604 27.0975Z" fill="#C4532C"/>
<path d="M227.123 23.2593C228.087 23.2593 228.869 22.4772 228.869 21.5125C228.869 20.5478 228.087 19.7658 227.123 19.7658C226.158 19.7658 225.376 20.5478 225.376 21.5125C225.376 22.4772 226.158 23.2593 227.123 23.2593Z" fill="#C4532C"/>
<path d="M214.181 21.9467C214.848 21.7576 215.199 20.937 214.965 20.1139C214.732 19.2909 214.002 18.777 213.335 18.9662C212.668 19.1554 212.317 19.9759 212.551 20.799C212.784 21.622 213.514 22.1359 214.181 21.9467Z" fill="#36344C"/>
<path d="M223.412 19.6835C224.079 19.4943 224.43 18.6737 224.197 17.8507C223.963 17.0276 223.233 16.5138 222.567 16.7029C221.9 16.8921 221.549 17.7127 221.782 18.5357C222.016 19.3588 222.746 19.8726 223.412 19.6835Z" fill="#36344C"/>
<path d="M214.068 16.6446C213.926 16.4605 213.719 16.3373 213.489 16.2999H213.25C213.093 16.3188 212.944 16.3791 212.818 16.4746L211.058 17.518C210.874 17.6593 210.751 17.8645 210.713 18.0926C210.68 18.3299 210.741 18.5707 210.883 18.7637C211.025 18.9478 211.232 19.071 211.462 19.1085H211.701C211.858 19.0905 212.008 19.0301 212.133 18.9338L213.894 17.8903C214.08 17.7519 214.204 17.5453 214.239 17.3158C214.271 17.0784 214.21 16.8376 214.068 16.6446Z" fill="#36344C"/>
<path d="M220.393 14.8473C220.419 14.6174 220.531 14.4056 220.706 14.2544L220.908 14.1257C221.052 14.0605 221.211 14.0336 221.368 14.0475L223.418 14.0107C223.648 14.0317 223.861 14.1423 224.011 14.3187C224.164 14.5039 224.238 14.7415 224.218 14.9806C224.208 15.095 224.176 15.2063 224.124 15.3081C224.071 15.4099 223.998 15.5002 223.91 15.5736L223.708 15.7023C223.565 15.7714 223.406 15.7985 223.248 15.7805L221.198 15.8218C220.967 15.7987 220.754 15.6866 220.605 15.5093C220.451 15.3248 220.375 15.0871 220.393 14.8473Z" fill="#36344C"/>
<path d="M56.9492 138.485L50.6885 191.926H80.0568L86.0785 152.597L92.8954 191.926H123.229L114.403 138.485H56.9492Z" fill="#2121E8"/>
<path d="M84.198 152.482L76.5307 150.28C76.2871 150.211 76.2274 150.602 76.471 150.671L84.1199 152.872C84.3773 152.941 84.4371 152.551 84.198 152.482Z" fill="#0F009E"/>
<path d="M70.2104 43.3469C70.2104 43.3469 66.0733 43.3791 63.9037 46.6611C63.9037 46.6611 52.6693 49.1617 50.348 53.193C48.0267 57.2243 33.9424 80.1527 33.9424 80.1527L46.0777 103.954C46.0777 103.954 51.9201 102.534 51.2765 96.3836L55.1286 91.5663L57.6981 107.475L55.3998 143.638C55.3998 143.638 63.5681 150.992 68.7302 151.627C73.8923 152.261 86.5608 143.564 86.5608 143.564C86.5608 143.564 98.9351 151.664 103.536 152.123C108.138 152.583 115.736 143.137 115.736 143.137L111.705 100.236L112.454 75.7306L125.398 82.166C125.398 82.166 129.857 89.461 137.809 84.6896L134.808 65.1536C134.808 65.1536 114.656 50.6878 109.949 47.4977C105.242 44.3076 89.636 44.588 89.636 44.588C89.636 44.588 86.9745 42.0184 84.2027 42.4459L70.2104 43.3469Z" fill="#50CAEF"/>
<path d="M77.0867 62.3542C75.6663 60.2811 74.2275 58.1804 72.3797 56.4613C70.7478 54.9398 68.7299 53.6573 66.5051 53.2712C65.3955 53.0425 64.2414 53.193 63.2276 53.6986C62.993 51.8285 63.2415 49.9294 63.9493 48.1826C64.0458 47.9482 63.6873 47.7873 63.5908 48.0217C62.8126 49.9258 62.5633 52.0047 62.8691 54.0388C62.8742 54.0725 62.8877 54.1044 62.9084 54.1315C62.9291 54.1585 62.9563 54.18 62.9874 54.1937C63.0186 54.2075 63.0528 54.2131 63.0867 54.2102C63.1207 54.2072 63.1533 54.1957 63.1817 54.1767C65.0433 52.9632 67.5577 53.7492 69.3412 54.7237C71.3186 55.883 73.039 57.4329 74.3976 59.279C75.2342 60.3501 76.0019 61.4717 76.7695 62.5933C76.912 62.7955 77.2246 62.5657 77.0867 62.3542Z" fill="#0008A5"/>
<path d="M91.2442 46.4772C91.2229 46.4319 91.1853 46.3963 91.1388 46.3777C91.0923 46.3591 91.0405 46.3588 90.9938 46.3768C90.9472 46.3949 90.9091 46.4301 90.8873 46.4752C90.8655 46.5202 90.8616 46.5719 90.8765 46.6197C91.617 48.3669 92.1493 50.1952 92.4623 52.0668C88.1828 52.5265 84.9054 55.7442 82.5243 59.1044C81.7796 60.157 81.0901 61.2464 80.4052 62.3221C80.2719 62.5335 80.5753 62.7817 80.7086 62.5703C82.9656 58.9848 85.4294 55.165 89.4101 53.3171C90.4506 52.8225 91.5687 52.5114 92.7152 52.3978C92.7412 52.3949 92.7664 52.3869 92.7893 52.3743C92.8122 52.3616 92.8324 52.3445 92.8486 52.324C92.8649 52.3034 92.8769 52.2799 92.884 52.2547C92.891 52.2295 92.893 52.2031 92.8898 52.1771C92.5744 50.2175 92.0218 48.3034 91.2442 46.4772Z" fill="#0008A5"/>
<path d="M50.7565 95.5332C49.0405 91.6005 46.616 88.0168 43.604 84.9608C42.7505 84.0879 41.8514 83.2609 40.9104 82.4832C40.8696 82.4578 40.821 82.4482 40.7737 82.4561C40.7263 82.4639 40.6835 82.4887 40.6531 82.5259C40.6227 82.563 40.6069 82.61 40.6085 82.6579C40.6102 82.7059 40.6292 82.7516 40.6621 82.7865C44.8907 86.2391 48.2333 90.6518 50.4117 95.6573C50.4899 95.9055 50.8576 95.763 50.7565 95.5332Z" fill="#0008A5"/>
<path d="M125.306 65.0249C125.357 64.7767 124.966 64.7169 124.916 64.9651C124.035 69.063 123.764 73.2682 124.111 77.4452C124.212 78.6403 124.366 79.8293 124.571 81.0122C124.617 81.2604 125.031 81.2191 124.966 80.9663C124.263 76.8389 124.175 72.6302 124.704 68.477C124.865 67.3187 125.063 66.1649 125.306 65.0249Z" fill="#0008A5"/>
<path d="M83.8762 112.867C83.1408 102.847 82.4068 92.8227 81.6744 82.7957C81.2607 77.1694 80.8485 71.543 80.4379 65.9167C80.4379 65.6638 80.0242 65.7052 80.0426 65.958L82.249 96.0342C82.9845 106.061 83.7184 116.087 84.4508 126.11L85.6873 142.99C85.6873 143.242 86.0964 143.196 86.0781 142.944C85.3487 132.92 84.6148 122.894 83.8762 112.867Z" fill="#0008A5"/>
<path d="M53.497 75.3445L52.8902 71.1615C52.8535 70.9133 52.4627 70.9547 52.4995 71.2075C53.2135 76.1351 53.9291 81.0628 54.6462 85.9905L55.2529 90.1735C55.2897 90.4263 55.6804 90.3803 55.6437 90.1321C54.9266 85.2044 54.211 80.2752 53.497 75.3445Z" fill="#0008A5"/>
<path d="M54.0161 89.3368L51.6028 80.217C51.5384 79.9688 51.1707 80.1159 51.2351 80.3595L53.6483 89.4793C53.7127 89.723 54.0804 89.5805 54.0161 89.3368Z" fill="#0008A5"/>
<path d="M112.969 60.9844C112.779 64.5331 112.587 68.0848 112.394 71.6396L112.233 74.6688C112.233 74.917 112.61 74.9814 112.624 74.7285C112.814 71.1799 113.006 67.6282 113.199 64.0734C113.251 63.0682 113.304 62.0585 113.36 61.0442C113.373 60.7959 112.983 60.7316 112.969 60.9844Z" fill="#0008A5"/>
<path d="M86.6292 47.4425L78.3965 63.9907L68.2607 48.5917L68.5779 44.9741L69.1479 38.5387C70.1784 39.5635 71.4144 40.3583 72.7744 40.8708C74.1344 41.3832 75.5876 41.6017 77.0381 41.5118C78.4887 41.4219 79.9037 41.0257 81.1901 40.3492C82.4764 39.6727 83.6048 38.7314 84.5009 37.5872L86.6292 47.4425Z" fill="#D36D29"/>
<path d="M84.5012 37.601C84.5012 37.601 81.1181 46.2382 68.7529 43.0481L69.1482 38.5525C70.1788 39.5773 71.4148 40.3721 72.7748 40.8846C74.1348 41.397 75.5879 41.6155 77.0385 41.5256C78.489 41.4357 79.9041 41.0394 81.1904 40.363C82.4767 39.6865 83.6051 38.7452 84.5012 37.601Z" fill="#AA3617"/>
<path d="M85.9589 29.9889L86.0784 31.8643C86.2271 34.2189 85.4966 36.5449 84.0283 38.3916C82.8259 39.918 81.1884 41.0435 79.3325 41.6192C77.4766 42.1949 75.4897 42.1937 73.6345 41.6158C71.7793 41.0379 70.1431 39.9106 68.9425 38.3828C67.7418 36.855 67.0332 34.9987 66.9102 33.0595L66.7953 31.1794C61.624 31.5058 60.8196 25.2405 62.7364 23.365C62.8005 23.3031 62.868 23.2448 62.9387 23.1903L63.1087 23.0708C64.6073 22.0963 65.7748 23.1995 66.1793 23.6822C66.8014 23.1265 67.2378 22.3932 67.4296 21.5815C67.6162 20.8014 67.565 19.9833 67.2825 19.2326C68.1094 19.1399 68.8694 18.7346 69.407 18.0996C69.9446 17.4646 70.2189 16.648 70.1739 15.8172C70.7551 16.115 71.4075 16.2455 72.0585 16.1942C72.4051 16.174 72.7463 16.0995 73.0698 15.9735C73.535 15.7923 73.9573 15.516 74.3095 15.1621C74.6618 14.8083 74.9362 14.3848 75.1153 13.9188C76.0178 14.6455 77.1475 15.0309 78.3059 15.0073C79.4643 14.9838 80.5774 14.5528 81.4496 13.7901C81.5293 14.6432 81.8269 15.4615 82.3138 16.1666C82.4349 16.3528 82.5701 16.5296 82.7183 16.6952C83.3257 17.4139 84.1217 17.9488 85.0166 18.2397C84.7729 18.858 84.6609 19.5204 84.6878 20.1845C84.7147 20.8486 84.8799 21.4998 85.1729 22.0963C85.274 22.2066 85.3797 22.317 85.4901 22.4273V22.6617C85.536 22.5744 86.2899 21.1448 87.6597 21.2046C88.0532 21.23 88.4348 21.3498 88.7721 21.5539C88.9196 21.637 89.0556 21.739 89.1766 21.8573C91.1716 23.7144 91.0153 29.6809 85.9589 29.9889Z" fill="#D36D29"/>
<path d="M78.0111 31.4828C76.8619 31.7264 75.7128 31.9425 74.5452 32.1585C74.7996 29.566 75.0156 26.9673 75.1933 24.3625C75.1933 24.0913 74.7888 24.0913 74.7704 24.3625C74.5866 27.047 74.3613 29.7268 74.0947 32.4021C74.0947 32.5538 74.2464 32.6274 74.3659 32.609C75.6254 32.3883 76.8757 32.1493 78.126 31.8781C78.3926 31.8321 78.2777 31.423 78.0111 31.4828Z" fill="#AA3617"/>
<path d="M70.1732 32.894C71.0973 32.894 71.8464 32.1449 71.8464 31.2208C71.8464 30.2967 71.0973 29.5476 70.1732 29.5476C69.2491 29.5476 68.5 30.2967 68.5 31.2208C68.5 32.1449 69.2491 32.894 70.1732 32.894Z" fill="#AA3617"/>
<path d="M83.4535 30.7197C84.3776 30.7197 85.1267 29.9706 85.1267 29.0465C85.1267 28.1225 84.3776 27.3733 83.4535 27.3733C82.5294 27.3733 81.7803 28.1225 81.7803 29.0465C81.7803 29.9706 82.5294 30.7197 83.4535 30.7197Z" fill="#AA3617"/>
<path d="M71.0911 28.0306C71.745 27.9235 72.1679 27.1827 72.0358 26.376C71.9037 25.5693 71.2666 25.0021 70.6127 25.1092C69.9588 25.2163 69.5358 25.9571 69.6679 26.7638C69.8 27.5705 70.4372 28.1377 71.0911 28.0306Z" fill="#36344C"/>
<path d="M80.1223 26.8802C80.7762 26.7731 81.1992 26.0323 81.0671 25.2256C80.935 24.4189 80.2978 23.8517 79.6439 23.9588C78.99 24.0659 78.5671 24.8067 78.6992 25.6134C78.8313 26.4201 79.4684 26.9873 80.1223 26.8802Z" fill="#36344C"/>
<path d="M71.5609 22.9835C71.448 22.7929 71.2648 22.6543 71.0507 22.5974L70.8255 22.5652C70.6736 22.5672 70.5247 22.6083 70.3934 22.6847L68.6007 23.4845C68.4077 23.6011 68.2683 23.7888 68.2124 24.0072C68.1565 24.2256 68.1886 24.4572 68.3019 24.6521C68.415 24.8453 68.6001 24.9859 68.8167 25.0428L69.0419 25.0704C69.1923 25.0721 69.3402 25.0323 69.4694 24.9555L71.2622 24.1556C71.3588 24.0983 71.4431 24.0225 71.5105 23.9326C71.5778 23.8427 71.6267 23.7403 71.6545 23.6315C71.6822 23.5226 71.6882 23.4094 71.6722 23.2982C71.6561 23.187 71.6183 23.0801 71.5609 22.9835Z" fill="#36344C"/>
<path d="M77.7812 21.9676C77.8254 21.7494 77.9543 21.5577 78.1397 21.4344L78.3465 21.3379C78.494 21.2849 78.6535 21.2753 78.8062 21.3103L80.7598 21.4988C80.9771 21.5453 81.1671 21.6758 81.2884 21.8619C81.4131 22.0499 81.4584 22.2796 81.4145 22.5009C81.3706 22.7221 81.241 22.9171 81.054 23.0433L80.8472 23.1444C80.6967 23.1859 80.5379 23.1859 80.3875 23.1444L78.4339 22.9835C78.2178 22.9372 78.0282 22.8086 77.9053 22.625C77.8417 22.5292 77.798 22.4218 77.7766 22.3089C77.7553 22.196 77.7569 22.0799 77.7812 21.9676Z" fill="#36344C"/>
<path d="M90.6793 19.4348C90.3972 20.356 89.8937 21.194 89.2129 21.8757C89.0919 21.7573 88.9559 21.6553 88.8084 21.5723C88.4711 21.3682 88.0895 21.2484 87.696 21.223C86.317 21.1632 85.5723 22.602 85.5264 22.6801V22.4457C85.4161 22.3354 85.3103 22.225 85.2092 22.1147C84.7688 21.2158 84.6194 20.202 84.7817 19.2142C83.9605 19.3285 83.1246 19.1668 82.4052 18.7545C81.647 18.3119 81.0619 17.6246 80.7458 16.8055C80.2932 17.062 79.798 17.2349 79.2841 17.3158C78.6924 17.3936 78.0912 17.3523 77.5157 17.1944C76.9403 17.0366 76.4022 16.7652 75.9331 16.3964C75.6249 16.6755 75.2819 16.9134 74.9126 17.1043C73.8211 17.6395 72.5661 17.7365 71.4053 17.3755C71.1953 17.9652 70.8543 18.4996 70.4078 18.9384C69.6373 19.6886 68.6184 20.1301 67.5441 20.1795C67.6018 20.6399 67.5769 21.1069 67.4705 21.5585C67.2747 22.3803 66.8281 23.1209 66.1927 23.6776C65.7881 23.2179 64.6206 22.0917 63.1221 23.0662L62.952 23.1857C62.8814 23.2402 62.8138 23.2985 62.7497 23.3604C62.4823 23.1387 62.2733 22.8547 62.1411 22.5334C62.0089 22.2121 61.9576 21.8633 61.9917 21.5175C62.0257 21.1717 62.144 20.8396 62.3363 20.5502C62.5286 20.2609 62.7889 20.0231 63.0945 19.8577C62.7596 19.5337 62.518 19.1258 62.3947 18.6765C62.2714 18.2271 62.271 17.753 62.3936 17.3035C62.5162 16.854 62.7573 16.4456 63.0916 16.1211C63.4259 15.7966 63.8413 15.5678 64.2942 15.4587C63.9307 14.9942 63.7295 14.4233 63.7212 13.8335C63.713 13.2437 63.8983 12.6675 64.2487 12.193C64.5991 11.7185 65.0953 11.3719 65.6614 11.2062C66.2275 11.0406 66.8323 11.065 67.3832 11.2757C67.2081 10.6748 67.2427 10.0323 67.4811 9.45363C67.7195 8.87497 68.1476 8.3946 68.6951 8.09143C69.2426 7.78827 69.877 7.68033 70.494 7.78536C71.1109 7.89038 71.6738 8.20212 72.0902 8.66937C72.1751 8.03156 72.457 7.43617 72.8965 6.96631C73.3361 6.49646 73.9115 6.1756 74.5422 6.04854C75.173 5.92148 75.8277 5.99455 76.4149 6.25756C77.0021 6.52057 77.4925 6.96038 77.8177 7.5156C78.0629 7.00119 78.4594 6.574 78.9542 6.29131C79.4489 6.00861 80.0183 5.88392 80.5859 5.93393C81.1536 5.98394 81.6924 6.20627 82.1301 6.57113C82.5678 6.93598 82.8835 7.42592 83.035 7.97527C83.9083 7.24899 85.3333 7.5156 86.1239 8.30163C86.9002 9.15083 87.3328 10.2585 87.3375 11.409C87.7451 11.2494 88.192 11.2194 88.6172 11.3231C89.0425 11.4267 89.4255 11.659 89.714 11.9882C89.9942 12.3238 90.2011 12.7144 90.3215 13.1347C90.4418 13.5551 90.4729 13.996 90.4127 14.429C90.2871 15.294 89.9733 16.121 89.4933 16.8515C90.4724 17.1641 90.9091 18.4144 90.6793 19.4348Z" fill="#36344C"/>
<path d="M81.6652 35.4589C81.2986 35.9484 80.8048 36.328 80.2375 36.5566C79.6702 36.7851 79.0511 36.8538 78.4476 36.7552C77.3903 36.5897 75.8504 35.6658 76.2503 34.3741C76.365 34.0942 76.5444 33.8454 76.7737 33.6481C77.0029 33.4507 77.2757 33.3105 77.5696 33.2387C78.0962 33.0732 78.661 33.0732 79.1876 33.2387C79.3234 32.7433 79.6131 32.3038 80.015 31.9838C80.2654 31.7903 80.5748 31.6888 80.8911 31.6963C81.2075 31.7039 81.5117 31.82 81.7526 32.0252C82.7409 32.917 82.3502 34.535 81.6652 35.4589Z" fill="#F4E9DC"/>
<path d="M18.8465 69.0976C18.8465 69.0976 27.4607 111.576 37.0357 109.434C46.6106 107.292 47.5207 102.562 45.9165 98.6176C44.3122 94.6736 28.4996 64.8135 28.4996 64.8135C28.4996 64.8135 28.4996 58.9021 26.8953 54.0066C25.2911 49.1111 25.9208 42.7493 25.2222 41.9495C24.5235 41.1497 21.5862 40.1108 22.0045 50.9084C22.0045 50.9084 9.87377 36.9483 8.01671 38.9019C6.15964 40.8555 14.8612 50.6143 14.8612 50.6143C14.8612 50.6143 3.21775 41.2002 2.08696 42.832C0.956174 44.4639 10.9954 53.1287 10.9954 53.1287C10.9954 53.1287 2.66155 46.2704 1.44342 47.5666C0.225299 48.8629 10.0025 56.76 10.0025 56.76C10.0025 56.76 0.0276405 55.4868 6.03065e-05 57.2197C-0.0275199 58.9527 9.4141 60.134 9.4141 60.134C9.4141 60.134 13.5419 67.0659 18.8465 69.0976Z" fill="#D36D29"/>
<path d="M17.8263 50.366C17.1506 50.7706 16.4933 51.2072 15.8498 51.6577C15.8411 51.633 15.8287 51.6097 15.813 51.5888L14.7098 50.3063C14.6802 50.2652 14.6357 50.2374 14.5859 50.2288C14.536 50.2202 14.4848 50.2315 14.4432 50.2603C14.4025 50.2914 14.3755 50.337 14.3678 50.3876C14.36 50.4382 14.3722 50.4898 14.4018 50.5315L15.5234 51.814C15.5371 51.8353 15.5561 51.8527 15.5785 51.8646C14.4572 52.6633 13.3914 53.5371 12.3884 54.4801C11.7755 53.8059 11.1519 53.1333 10.5176 52.4621C10.4873 52.4218 10.4425 52.3949 10.3927 52.3872C10.3429 52.3794 10.292 52.3915 10.251 52.4208C10.2305 52.4354 10.2131 52.4539 10.1999 52.4753C10.1867 52.4967 10.178 52.5205 10.1741 52.5454C10.1702 52.5702 10.1714 52.5956 10.1775 52.62C10.1836 52.6443 10.1945 52.6673 10.2096 52.6874L12.0713 54.7007C12.0713 54.7007 12.0713 54.7007 12.0988 54.7007C11.7863 55.0041 11.4737 55.3121 11.1795 55.6201C11.0094 55.7993 11.3082 56.043 11.4783 55.8637C13.4186 53.8225 15.6341 52.0618 18.0608 50.6327C18.2676 50.5637 18.0424 50.2419 17.8263 50.366Z" fill="#AA3617"/>
<path d="M20.1753 55.4822C19.5505 57.364 19.2096 59.3285 19.1641 61.3108C19.1641 61.5544 19.541 61.5084 19.5502 61.2648C19.5921 59.3523 19.9222 57.4571 20.5293 55.6431C20.6074 55.4086 20.2535 55.2477 20.1753 55.4822Z" fill="#AA3617"/>
<path d="M26.3802 66.5556C24.8495 67.0576 23.3513 67.6532 21.8938 68.3391C21.6731 68.4449 21.811 68.7988 22.0363 68.6977C23.4937 68.0117 24.992 67.4161 26.5227 66.9142C26.7571 66.836 26.6146 66.4775 26.3802 66.5556Z" fill="#AA3617"/>
<path d="M141.946 40.621C141.946 40.621 147.595 83.591 137.841 84.6758C128.087 85.7606 125.692 81.5822 125.931 77.3211C126.17 73.0599 131.447 39.6925 131.447 39.6925C131.447 39.6925 129.53 34.1075 129.457 28.9592C129.383 23.8109 126.699 17.9731 127.108 17.0078C127.517 16.0425 129.953 14.0935 133.056 24.4406C133.056 24.4406 139.992 7.29496 142.382 8.54066C144.773 9.78637 139.712 21.8435 139.712 21.8435C139.712 21.8435 147.696 9.14743 149.278 10.3288C150.859 11.5101 144.198 22.9835 144.198 22.9835C144.198 22.9835 149.852 13.7901 151.424 14.5991C152.996 15.4081 146.308 26.0541 146.308 26.0541C146.308 26.0541 155.331 21.6137 155.924 23.2639C156.517 24.9141 147.967 29.0787 147.967 29.0787C147.967 29.0787 146.313 36.9713 141.946 40.621Z" fill="#D36D29"/>
<path d="M136.834 22.5698C137.611 22.7261 138.37 22.9283 139.133 23.1444C139.126 23.1203 139.126 23.0949 139.133 23.0708L139.776 21.4896C139.792 21.4416 139.826 21.4016 139.87 21.3777C139.915 21.3537 139.967 21.3477 140.015 21.3608C140.04 21.3682 140.063 21.3804 140.083 21.3966C140.102 21.4129 140.119 21.433 140.131 21.4557C140.143 21.4783 140.15 21.5032 140.152 21.5287C140.155 21.5543 140.152 21.58 140.144 21.6045L139.5 23.1857C139.491 23.2072 139.479 23.2273 139.464 23.2455C140.783 23.6394 142.074 24.12 143.33 24.6843C143.697 23.8477 144.07 23.0065 144.442 22.1699C144.458 22.1219 144.491 22.0819 144.536 22.058C144.58 22.0341 144.632 22.028 144.681 22.0412C144.73 22.056 144.77 22.0895 144.794 22.1342C144.818 22.179 144.824 22.2314 144.81 22.2802L143.693 24.8222C143.695 24.8328 143.695 24.8437 143.693 24.8543C144.088 25.0382 144.479 25.2313 144.869 25.4335C145.09 25.5484 144.869 25.8932 144.667 25.7599C142.169 24.4604 139.502 23.5152 136.742 22.9513C136.48 22.887 136.595 22.5238 136.834 22.5698Z" fill="#AA3617"/>
<path d="M136.278 28.1686C137.481 29.7447 138.44 31.4925 139.123 33.3536C139.211 33.5835 138.834 33.6662 138.746 33.4364C138.083 31.6404 137.153 29.9545 135.988 28.4352C135.846 28.2375 136.126 27.9755 136.278 28.1686Z" fill="#AA3617"/>
<path d="M134.003 40.6578C135.613 40.6432 137.221 40.7277 138.82 40.9106C139.069 40.9382 139.055 41.3197 138.82 41.2967C137.219 41.1221 135.609 41.0439 133.999 41.0623C133.764 41.0439 133.764 40.6578 134.003 40.6578Z" fill="#AA3617"/>
<path d="M174.882 33.6157C174.108 34.5104 173.103 35.1747 171.977 35.5356C170.85 35.8964 169.646 35.9399 168.497 35.6612C166.106 35.0268 164.291 33.2111 162.112 32.1309C160.963 31.5563 159.712 31.0967 158.811 30.1406C158.699 30.0219 158.596 29.8943 158.503 29.759C158.394 29.6292 158.296 29.4909 158.209 29.3453C156.918 27.047 158.241 24.2108 159.648 22.317C160.396 21.2857 161.341 20.4128 162.428 19.7485C163.515 19.0843 164.723 18.6418 165.982 18.4465C167.18 18.3121 168.392 18.4211 169.546 18.7671C170.7 19.1131 171.772 19.6889 172.698 20.4599C174.664 22.0197 176.033 24.2097 176.573 26.6608C176.841 27.8723 176.827 29.129 176.534 30.3345C176.241 31.54 175.676 32.6624 174.882 33.6157Z" fill="#2121E8"/>
<path d="M178.403 41.5128C178.403 50.0856 172.694 55.2064 165.426 55.2064C158.159 55.2064 152.096 50.0856 152.096 41.5128C152.096 32.9399 157.989 27.8698 165.251 27.8698C172.514 27.8698 178.403 32.9399 178.403 41.5128Z" fill="#2121E8"/>
<path d="M114.316 14.7094C114.081 16.5481 113.521 18.3362 113.171 20.1565C112.712 22.6801 112.611 25.2635 112.16 27.7916C111.733 30.2095 110.905 32.6504 109.246 34.4523C109.269 35.0728 109.283 35.6888 109.306 36.2909L99.7857 33.9328L99.9926 30.9955C98.6458 28.095 98.1539 24.8635 97.1564 21.8021C96.021 18.3362 94.2329 15.0496 93.3687 11.4917C93.2982 11.2692 93.2747 11.0344 93.2998 10.8022C93.314 10.6859 93.3602 10.5758 93.4333 10.4841C93.5063 10.3924 93.6033 10.3227 93.7135 10.2828C94.072 10.1909 94.3892 10.5264 94.6007 10.8298C95.9009 12.6733 97.0464 14.6213 98.0252 16.6538C97.1258 13.4919 96.4757 10.2643 96.0808 7.00077C95.966 6.31853 95.9521 5.62314 96.0394 4.93685C96.0854 4.66105 96.2049 4.34848 96.4715 4.27953C96.6019 4.26813 96.733 4.29198 96.8511 4.34859C96.9692 4.40519 97.0698 4.49247 97.1426 4.60129C97.5677 5.15137 97.8886 5.7745 98.0896 6.43997C99.2893 9.65307 100.291 13.0224 101.266 16.3826H101.344C100.535 12.195 99.7168 7.98447 99.5651 3.72332C99.5437 3.47753 99.5671 3.2299 99.634 2.99245C99.671 2.87604 99.7388 2.77182 99.8303 2.69088C99.9217 2.60994 100.033 2.5553 100.153 2.53278C100.475 2.49141 100.751 2.76261 100.944 3.02463C101.586 3.98979 102.052 5.06028 102.323 6.18716C103.04 8.61881 103.573 11.0918 104.056 13.5786C103.881 10.9677 103.725 8.3568 103.652 5.73668C103.578 4.87 103.657 3.99707 103.886 3.15793C104.001 2.81318 104.268 2.43165 104.626 2.48681C104.902 2.52818 105.086 2.80858 105.182 3.066C106.644 6.28369 106.888 9.85073 107.439 13.3212C107.808 15.6397 108.325 17.9321 108.988 20.1841C109.623 17.9231 110.653 15.7925 112.031 13.8912C112.223 13.5945 112.467 13.3358 112.753 13.1282C112.897 13.0274 113.064 12.963 113.238 12.9406C113.413 12.9182 113.59 12.9384 113.755 12.9995C114.348 13.2661 114.399 14.0751 114.316 14.7094Z" fill="#F99958"/>
<path d="M105.761 13.5281C105.301 13.7211 104.842 13.9326 104.382 14.1624C104.331 13.8039 104.285 13.4453 104.235 13.0914C104.228 13.0378 104.201 12.9888 104.159 12.9546C104.117 12.9204 104.064 12.9036 104.01 12.9075C103.955 12.9144 103.906 12.9425 103.873 12.9855C103.839 13.0286 103.824 13.0832 103.83 13.1374L103.982 14.2773C103.987 14.3017 103.997 14.3251 104.01 14.3463C102.383 15.1866 100.873 16.2359 99.5186 17.4675C99.3256 17.6467 99.5646 17.9777 99.7577 17.7984C101.564 16.1502 103.646 14.8323 105.908 13.905C106.152 13.8131 106.005 13.427 105.761 13.5281Z" fill="#D36D29"/>
<path d="M98.2406 16.3551C98.2247 16.3335 98.2047 16.3153 98.1818 16.3015C98.1588 16.2877 98.1333 16.2786 98.1068 16.2748C98.0803 16.2709 98.0532 16.2724 98.0273 16.2791C98.0014 16.2857 97.977 16.2975 97.9556 16.3137C97.9123 16.3458 97.8833 16.3936 97.8747 16.4468C97.8661 16.5001 97.8787 16.5546 97.9097 16.5987C97.9187 16.618 97.9294 16.6365 97.9418 16.6538C97.9614 16.6877 97.9783 16.7231 97.9924 16.7596C98.0245 16.8277 98.0506 16.8984 98.0705 16.971C98.0846 17.0032 98.0939 17.0373 98.0981 17.0721V17.1089C98.1007 17.1241 98.1007 17.1397 98.0981 17.1549C98.0981 17.233 98.1211 17.3112 98.1303 17.3939C98.1332 17.4205 98.1413 17.4463 98.1542 17.4698C98.1671 17.4933 98.1845 17.5139 98.2055 17.5306C98.2264 17.5473 98.2505 17.5596 98.2762 17.567C98.302 17.5743 98.329 17.5764 98.3555 17.5732C98.4088 17.5663 98.4573 17.5389 98.4908 17.4969C98.5242 17.4548 98.54 17.4014 98.5348 17.3479C98.515 16.9987 98.4143 16.6587 98.2406 16.3551Z" fill="#D36D29"/>
<path d="M106.708 24.744C105.355 22.8813 103.634 21.3167 101.651 20.1473C101.426 20.014 101.256 20.3864 101.481 20.5197C103.394 21.6561 105.053 23.1719 106.358 24.9739C106.528 25.1991 106.859 24.9601 106.708 24.744Z" fill="#D36D29"/>
<path d="M206.493 173.755C206.493 174.215 206.493 174.675 206.465 175.162C206.497 175.563 206.397 175.963 206.18 176.302C206.084 176.43 205.951 176.527 205.8 176.579C205.648 176.631 205.485 176.637 205.33 176.596C205.19 176.54 205.063 176.455 204.959 176.346C204.854 176.238 204.774 176.108 204.723 175.966C204.56 175.557 204.421 175.138 204.309 174.711C204.171 174.252 204.038 173.792 203.914 173.332C203.79 172.873 203.698 172.491 203.597 172.068C203.542 172.928 203.473 173.792 203.349 174.647C203.183 175.831 202.875 176.99 202.429 178.099C202.259 178.499 202.043 178.995 201.583 179.124C201.4 179.175 201.205 179.156 201.035 179.071C200.866 178.986 200.733 178.841 200.664 178.665C200.49 178.227 200.429 177.753 200.485 177.286C200.485 176.605 200.508 175.907 200.522 175.24C200.522 174.725 200.522 174.206 200.522 173.686C200.453 173.985 200.379 174.279 200.296 174.569C200.055 175.477 199.757 176.369 199.405 177.24C199.147 177.869 198.485 178.665 197.736 178.237C197.599 178.149 197.484 178.031 197.398 177.893C197.312 177.755 197.258 177.599 197.24 177.437C197.183 176.978 197.17 176.515 197.198 176.054C197.201 175.439 197.236 174.826 197.304 174.215C197.065 174.629 196.812 175.038 196.536 175.433C196.358 175.752 196.093 176.015 195.773 176.192C195.637 176.245 195.486 176.25 195.347 176.205C195.208 176.159 195.089 176.067 195.01 175.943C194.894 175.723 194.855 175.471 194.9 175.226C194.954 174.85 195.029 174.477 195.125 174.109C195.3 173.273 195.474 172.441 195.654 171.604L196.191 169.048C196.4 168.237 196.554 167.412 196.651 166.58C196.691 165.826 196.604 165.071 196.394 164.346C196.113 163.886 195.842 163.39 195.603 162.889C194.504 160.544 194.036 157.786 194.946 155.304C195.523 153.696 196.706 152.376 198.242 151.627C198.345 151.552 198.452 151.483 198.563 151.42C199.217 151.044 199.973 150.883 200.724 150.96C201.463 151.065 202.144 151.418 202.654 151.962C203.854 153.19 204.153 154.946 204.493 156.559C204.888 158.457 205.247 160.36 205.55 162.277C206.178 166.071 206.493 169.91 206.493 173.755Z" fill="#F99958"/>
<path d="M161.873 128.583L133.732 127.204C133.732 127.204 123.937 126.745 122.797 191.917H149.228L157.41 155.46L161.873 191.917H185.914C185.914 191.917 191.839 134.27 177.709 128.344L161.873 128.583Z" fill="#36344C"/>
<path d="M180.159 130.749C151.792 139.023 137.097 129.039 137.097 129.039L141.234 105.228L144.796 70.9317L174.302 72.3107L177.722 111.383C177.456 111.406 180.159 130.749 180.159 130.749Z" fill="#F4E9DC"/>
<path d="M168.363 94.5771C168.331 96.152 168.207 97.7238 167.991 99.2841C167.793 100.847 167.591 102.41 167.338 103.964C166.879 106.965 166.207 110.086 164.759 112.785C164.199 113.828 163.38 114.885 162.171 115.147C160.829 115.428 159.62 114.545 158.715 113.672C157.543 112.527 156.444 111.295 155.313 110.1C154.293 109.02 153.226 107.963 152.307 106.781C151.432 105.721 150.817 104.471 150.51 103.132C150.276 101.695 150.468 100.222 151.061 98.8934C151.656 97.5311 152.416 96.2467 153.323 95.069C154.161 93.9127 155.072 92.8104 156.049 91.7685C156.398 91.4008 156.757 91.0468 157.124 90.6975C157.736 90.0493 158.379 89.4196 159.055 88.8312C160.106 87.8691 161.259 87.0244 162.493 86.3122C163.093 85.9452 163.791 85.7704 164.493 85.8112C165.077 85.882 165.625 86.1363 166.056 86.5375C167.035 87.42 167.522 88.7255 167.848 89.9666C168.222 91.4742 168.395 93.0243 168.363 94.5771Z" fill="#50CAEF"/>
<path d="M170.749 108.022C171.323 112.035 166.8 113.86 163.642 112.159C160.287 108.813 159.018 94.9816 166.993 98.1395C170.537 99.9414 170.97 104.442 170.749 108.022Z" fill="#D36D29"/>
<path d="M153.801 94.908C152.379 95.6691 150.785 96.048 149.174 96.0077C147.562 95.9674 145.988 95.5093 144.607 94.6782C143.862 94.2267 143.186 93.671 142.598 93.028C142.419 92.8349 142.088 93.074 142.267 93.267C143.709 94.8563 145.641 95.9185 147.755 96.2849C149.87 96.6513 152.046 96.301 153.938 95.2896C154.178 95.1517 154.035 94.7839 153.801 94.908Z" fill="#E2CAB0"/>
<path d="M177.147 96.3101C175.183 97.4678 172.905 97.9812 170.634 97.7784C168.362 97.5756 166.212 96.6667 164.483 95.1793C164.281 95.0092 164.024 95.3264 164.221 95.4964C165.617 96.6857 167.278 97.5213 169.065 97.9326C170.851 98.3439 172.711 98.3187 174.486 97.8591C175.505 97.5909 176.481 97.1808 177.386 96.641C177.616 96.5307 177.372 96.1768 177.147 96.3101Z" fill="#E2CAB0"/>
<path d="M174.174 50.2098L174.068 52.0071C174.028 52.6798 173.912 53.3459 173.724 53.9928C173.123 56.0548 171.823 57.8429 170.046 59.0492C168.235 60.2874 166.042 60.8374 163.861 60.5996C161.68 60.3619 159.656 59.3522 158.155 57.7529C157.294 56.8377 156.628 55.7569 156.198 54.5763C155.768 53.3957 155.583 52.1399 155.654 50.8855L155.764 49.0973C150.625 48.7894 150.758 42.308 153.006 41.0118C154.758 40.0097 155.824 41.5036 156.091 41.9311C157.331 41.8806 158.563 41.705 159.768 41.4071C162.585 40.7888 165.195 39.4523 167.343 37.5275C167.745 37.1576 168.12 36.7597 168.465 36.3369C169.022 35.6649 169.508 34.938 169.918 34.1673C171.058 35.0501 172.033 36.1269 172.8 37.3482C173.328 38.1689 173.748 39.0541 174.05 39.9821C174.388 40.9984 174.571 42.0599 174.592 43.1308C174.726 42.9424 176.05 41.1405 177.847 42.4689C178.113 42.672 178.33 42.9329 178.481 43.232C178.587 43.4275 178.674 43.6321 178.743 43.8433C179.534 46.3209 178.311 50.4534 174.174 50.2098Z" fill="#F99958"/>
<path d="M181.951 68.5828C181.53 69.5359 181 70.4368 180.37 71.2672C172.616 81.8902 156.987 82.6073 148.037 72.9726C145.849 70.6145 144.01 68.3759 143.077 66.7211C147.118 65.8937 156.968 63.9631 156.968 63.9631L157.148 63.0161L157.736 59.9088L158.15 57.7529C159.651 59.3522 161.675 60.3619 163.856 60.5996C166.037 60.8374 168.231 60.2874 170.041 59.0492L170.202 61.5038L170.414 64.4595C171.108 64.5652 181.951 68.5414 181.951 68.5828Z" fill="#F99958"/>
<path d="M165.876 50.982C164.8 50.982 163.725 50.936 162.658 50.8901C163.409 48.6285 164.125 46.3577 164.805 44.0778C164.874 43.8341 164.492 43.7514 164.423 43.995C163.719 46.3485 162.979 48.6928 162.203 51.028C162.162 51.1613 162.291 51.2624 162.405 51.267C163.573 51.3222 164.736 51.3589 165.904 51.3727C166.147 51.3727 166.124 50.9866 165.876 50.982Z" fill="#D36D29"/>
<path d="M158.94 50.7016C159.785 50.7016 160.471 50.0163 160.471 49.1709C160.471 48.3255 159.785 47.6402 158.94 47.6402C158.094 47.6402 157.409 48.3255 157.409 49.1709C157.409 50.0163 158.094 50.7016 158.94 50.7016Z" fill="#D36D29"/>
<path d="M171.218 51.4325C172.064 51.4325 172.749 50.7472 172.749 49.9018C172.749 49.0564 172.064 48.3711 171.218 48.3711C170.373 48.3711 169.688 49.0564 169.688 49.9018C169.688 50.7472 170.373 51.4325 171.218 51.4325Z" fill="#D36D29"/>
<path d="M161.564 45.2286C161.608 44.481 161.153 43.8458 160.548 43.8098C159.942 43.7738 159.415 44.3507 159.37 45.0983C159.326 45.8459 159.781 46.4811 160.387 46.5171C160.992 46.5531 161.519 45.9762 161.564 45.2286Z" fill="#36344C"/>
<path d="M169.85 46.0164C169.894 45.2688 169.439 44.6336 168.834 44.5976C168.228 44.5616 167.701 45.1385 167.657 45.8861C167.612 46.6336 168.067 47.2689 168.673 47.3049C169.279 47.3408 169.806 46.764 169.85 46.0164Z" fill="#36344C"/>
<path d="M161.831 42.1104C161.771 41.9135 161.635 41.7483 161.454 41.6507L161.261 41.5772C161.127 41.5404 160.986 41.5404 160.852 41.5772L159.091 41.9265C158.894 41.9882 158.729 42.1253 158.632 42.308C158.537 42.4946 158.519 42.7105 158.581 42.9102C158.643 43.1064 158.778 43.2711 158.958 43.3699L159.156 43.4388C159.289 43.4778 159.431 43.4778 159.565 43.4388L161.321 43.0849C161.418 43.0541 161.509 43.0043 161.587 42.9382C161.665 42.8722 161.73 42.7912 161.776 42.7001C161.823 42.609 161.851 42.5096 161.859 42.4075C161.866 42.3055 161.854 42.2029 161.822 42.1058L161.831 42.1104Z" fill="#36344C"/>
<path d="M167.581 42.4505C167.668 42.2674 167.821 42.1243 168.009 42.0506L168.211 42C168.35 41.9857 168.49 42.0095 168.616 42.069L170.321 42.6298C170.505 42.7147 170.649 42.8681 170.721 43.0573C170.799 43.252 170.799 43.4694 170.721 43.6641C170.635 43.8471 170.482 43.9903 170.294 44.064L170.077 44.1283C169.94 44.1399 169.803 44.1162 169.678 44.0594L167.963 43.4848C167.871 43.4434 167.789 43.3843 167.72 43.3109C167.652 43.2375 167.598 43.1514 167.563 43.0573C167.489 42.8606 167.495 42.6424 167.581 42.4505Z" fill="#36344C"/>
<path d="M170.046 59.0768C170.046 59.0768 168.042 64.8043 157.152 63.0391L157.745 59.9272L158.154 57.7713C159.655 59.372 161.678 60.3834 163.859 60.6229C166.04 60.8623 168.234 60.3139 170.046 59.0768Z" fill="#D36D29"/>
<path d="M168.699 52.0438C168.312 52.5869 167.803 53.0319 167.213 53.3432C166.623 53.6545 165.969 53.8234 165.302 53.8365C165.04 53.8365 165.086 54.2502 165.348 54.2456C166.069 54.2279 166.776 54.0436 167.414 53.707C168.052 53.3705 168.604 52.8909 169.025 52.3058C169.159 52.0898 168.837 51.8324 168.699 52.0438Z" fill="#36344C"/>
<path d="M157.41 61.6923L156.973 63.9907L152.942 64.7859L139.004 156.95C122.346 155.755 115.281 145.784 115.281 145.784L121.886 91.7869C121.886 91.7869 96.177 72.5313 93.5568 64.0228C90.9367 55.5143 97.7352 31.515 97.7352 31.515L99.7854 32.0252L109.305 34.3833L110.606 34.7051V54.3744L145.467 63.2368C149.223 61.6067 153.363 61.0713 157.41 61.6923Z" fill="#6B92AF"/>
<path d="M170.207 61.5268C171.891 61.5619 173.547 61.9629 175.061 62.7018C176.575 63.4408 177.909 64.5001 178.973 65.8064C178.973 65.8064 189.329 68.1047 191.269 74.9216C193.209 81.7385 203.68 150.344 203.68 150.344C203.68 150.344 202.655 157.465 194.225 158.32L189.444 151.139L189.674 154.445C189.674 154.445 183.409 160.765 175.884 159.8L170.414 64.4825L170.207 61.5268Z" fill="#6B92AF"/>
<path d="M145.716 83.5174C145.339 79.4729 145.168 75.4119 145.201 71.35C145.219 69.0424 145.306 66.7334 145.463 64.4228C145.463 64.1607 145.072 64.0964 145.054 64.3584C144.787 68.4311 144.723 72.5083 144.861 76.5902C145.003 80.6826 145.353 84.7651 145.909 88.822C146.215 91.0989 146.592 93.3636 147.039 95.616C147.09 95.8734 147.499 95.8274 147.448 95.57C146.667 91.5845 146.088 87.5618 145.716 83.5174Z" fill="#387093"/>
<path d="M179.271 66.6521C178.91 70.355 178.361 74.0371 177.626 77.6842C176.885 81.3351 175.957 84.9452 174.845 88.5003C174.219 90.5044 173.53 92.4856 172.79 94.4484C172.698 94.692 173.07 94.8621 173.162 94.6139C174.482 91.1259 175.622 87.5726 176.578 83.9679C177.534 80.3653 178.301 76.7151 178.876 73.0324C179.204 70.9455 179.47 68.8494 179.676 66.7441C179.699 66.4683 179.294 66.4039 179.271 66.6521Z" fill="#387093"/>
<path d="M120.893 77.3579C120.755 76.1321 120.628 74.894 120.511 73.6437C120.505 73.5901 120.478 73.5411 120.436 73.5074C120.394 73.4738 120.34 73.4584 120.286 73.4645C120.232 73.4705 120.183 73.4977 120.15 73.5399C120.116 73.5822 120.101 73.636 120.107 73.6897C120.517 78.0749 121.063 82.4449 121.743 86.7995C121.936 88.0268 122.143 89.2541 122.355 90.4768C122.401 90.7343 122.814 90.6883 122.764 90.4309C121.998 86.0946 121.374 81.737 120.893 77.3579Z" fill="#387093"/>
<path d="M120.916 87.5258C119.758 84.1548 118.598 80.7839 117.436 77.413C117.349 77.1648 116.977 77.3119 117.055 77.5601L120.534 87.6958C120.622 87.9257 121.003 87.797 120.916 87.5258Z" fill="#387093"/>
<path d="M188.033 128.427C187.594 121.584 187.083 114.747 186.497 107.917C186.166 104.046 185.812 100.18 185.435 96.3192C185.425 96.269 185.396 96.2246 185.354 96.1947C185.312 96.1647 185.261 96.1512 185.21 96.157C185.159 96.1627 185.112 96.1872 185.078 96.2257C185.044 96.2642 185.026 96.3139 185.026 96.3652C185.698 103.223 186.295 110.088 186.819 116.958C187.343 123.829 187.792 130.67 188.166 137.483C188.377 141.359 188.566 145.237 188.731 149.117C188.731 149.379 189.15 149.333 189.14 149.071C188.846 142.185 188.477 135.304 188.033 128.427Z" fill="#387093"/>
<path d="M138.14 129.167C135.799 134.201 132.303 138.61 127.936 142.038C126.704 143.007 125.41 143.893 124.061 144.69C123.831 144.824 124.061 145.15 124.3 145.021C130.523 141.345 135.481 135.862 138.513 129.301C138.515 129.256 138.503 129.213 138.478 129.176C138.453 129.139 138.418 129.111 138.376 129.096C138.334 129.081 138.289 129.08 138.247 129.093C138.204 129.106 138.167 129.132 138.14 129.167Z" fill="#387093"/>
<path d="M186.011 149.581C181.79 144.614 178.956 138.62 177.796 132.206C177.75 131.948 177.337 131.99 177.392 132.252C178.304 137.29 180.236 142.089 183.069 146.354C183.87 147.56 184.742 148.717 185.68 149.82C185.845 150.022 186.167 149.783 186.011 149.581Z" fill="#387093"/>
<path d="M143.205 79.6148C140.038 84.9728 137.809 90.8319 136.614 96.9398C136.462 97.7212 137.68 97.9097 137.832 97.1329C139.01 91.1352 141.205 85.3831 144.322 80.1251C144.727 79.4448 143.605 78.9437 143.205 79.6148Z" fill="#F4E9DC"/>
<path d="M178.903 84.4828C178.683 83.7243 177.524 84.1702 177.759 84.9424C179.397 90.5666 179.911 96.4584 179.271 102.281C179.184 103.063 180.397 103.26 180.485 102.474C181.146 96.4314 180.609 90.3174 178.903 84.4828Z" fill="#F4E9DC"/>
<path d="M145.793 95.5056C144.929 103.351 144.01 111.19 143.035 119.022C142.061 126.855 141.012 134.637 139.891 142.369C139.278 146.727 138.636 151.081 137.965 155.433C137.964 155.483 137.981 155.531 138.013 155.569C138.045 155.607 138.09 155.633 138.139 155.641C138.188 155.648 138.239 155.638 138.281 155.612C138.323 155.586 138.355 155.545 138.369 155.497C139.555 147.698 140.678 139.884 141.739 132.054C142.799 124.224 143.79 116.434 144.713 108.684C145.234 104.311 145.735 99.9369 146.216 95.5608C146.225 95.308 145.821 95.2436 145.793 95.5056Z" fill="#F4E9DC"/>
<path d="M175.502 133.543C174.969 125.352 174.627 117.151 174.477 108.942C174.394 104.317 174.37 99.6917 174.403 95.0643C174.403 94.8023 173.999 94.8483 173.994 95.1103C173.936 103.32 174.063 111.527 174.376 119.73C174.688 127.934 175.195 136.127 175.897 144.309C176.293 148.905 176.752 153.502 177.276 158.099C177.287 158.149 177.316 158.193 177.358 158.223C177.399 158.253 177.451 158.267 177.502 158.261C177.553 158.255 177.6 158.231 177.634 158.192C177.668 158.154 177.686 158.104 177.685 158.053C176.763 149.908 176.035 141.738 175.502 133.543Z" fill="#F4E9DC"/>
</g>
<defs>
<clipPath id="clip0_1018_5171">
<rect width="285" height="191.926" fill="white"/>
</clipPath>
</defs>
</svg>
